<svg width="157" height="157" viewBox="0 0 157 157" fill="none" xmlns="http://www.w3.org/2000/svg">
<circle cx="97" cy="97" r="51.5" transform="rotate(180 97 97)" fill="white" stroke="#121212" stroke-width="3"/>
<circle cx="97" cy="97" r="42" transform="rotate(180 97 97)" stroke="#121212" stroke-width="3"/>
<path d="M90.705 114.768L90.817 115.776C90.817 116.56 90.4997 117.232 89.865 117.792C89.2677 118.389 88.5584 118.688 87.737 118.688C86.9157 118.688 86.057 118.128 85.161 117.008C84.3024 115.925 83.873 114.992 83.873 114.208C83.873 113.275 84.1157 112.323 84.601 111.352C84.6384 111.091 84.769 109.784 84.993 107.432C85.217 105.08 85.7957 101.123 86.729 95.56C87.6997 89.96 88.3157 86.152 88.577 84.136V83.576C88.577 82.68 88.241 82.232 87.569 82.232C86.9344 82.232 86.281 82.568 85.609 83.24C85.6837 83.3893 85.721 83.688 85.721 84.136C85.721 84.584 85.217 86.0213 84.209 88.448C83.201 90.8373 81.7637 94.4773 79.897 99.368C79.337 100.712 78.5904 101.384 77.657 101.384C76.7237 101.384 75.8837 100.824 75.137 99.704C74.3904 98.584 74.017 97.632 74.017 96.848C74.017 96.0267 74.1477 95.2613 74.409 94.552C75.3424 92.312 76.4064 90.0907 77.601 87.888C78.7957 85.648 79.729 83.8747 80.401 82.568C81.1104 81.2613 81.633 80.3093 81.969 79.712C82.3424 79.1147 82.7157 78.816 83.089 78.816C83.4624 78.816 83.7984 78.8533 84.097 78.928C84.8064 78.0693 85.7584 77.64 86.953 77.64C88.1477 77.64 89.3424 78.0133 90.537 78.76C91.769 79.5067 92.385 81.3733 92.385 84.36C92.385 85.4053 92.2917 86.9173 92.105 88.896C91.9184 90.8373 91.8064 92.0693 91.769 92.592C94.793 83.968 97.481 78.5733 99.833 76.408C100.244 75.9973 100.822 75.792 101.569 75.792C103.249 75.792 104.294 76.128 104.705 76.8C105.153 77.4347 105.377 78.6293 105.377 80.384C105.377 82.1013 105.209 83.968 104.873 85.984C104.537 88 104.014 90.5573 103.305 93.656C102.596 96.7173 102.129 98.752 101.905 99.76C101.718 100.731 101.625 101.683 101.625 102.616C101.625 103.549 101.681 104.016 101.793 104.016C102.092 104.016 102.838 103.027 104.033 101.048C105.265 99.032 105.993 98.024 106.217 98.024C106.441 98.024 106.553 98.3787 106.553 99.088C106.553 101.589 106.254 104.24 105.657 107.04C105.097 109.84 104.276 111.968 103.193 113.424C102.148 114.88 101.196 115.608 100.337 115.608C99.9637 115.608 99.497 115.403 98.937 114.992C98.377 114.544 98.041 114.264 97.929 114.152C96.697 112.808 96.081 110.848 96.081 108.272C96.081 105.995 97.2384 99.2373 99.553 88C100.262 84.416 100.748 81.9333 101.009 80.552C98.209 85.256 96.025 90.24 94.457 95.504C92.9264 100.731 91.7317 106.685 90.873 113.368L90.705 114.768ZM118.57 77.472C118.57 78.704 118.047 80.4213 117.002 82.624C115.957 84.7893 114.967 86.3573 114.034 87.328C113.885 87.552 113.661 87.664 113.362 87.664C112.429 87.664 111.962 86.9173 111.962 85.424C111.962 83.9307 112.615 81.84 113.922 79.152C114.183 78.592 114.351 78.0133 114.426 77.416C114.501 76.8187 114.538 76.4827 114.538 76.408C114.575 76.296 114.594 76.2213 114.594 76.184C114.631 76.1093 114.65 76.0347 114.65 75.96C114.687 75.848 114.706 75.7733 114.706 75.736C114.743 75.6613 114.781 75.6053 114.818 75.568C114.855 75.4933 114.893 75.4373 114.93 75.4C115.042 75.3253 115.341 75.288 115.826 75.288C116.311 75.288 116.89 75.4933 117.562 75.904C118.234 76.3147 118.57 76.8373 118.57 77.472ZM119.13 102.336C119.541 101.701 119.821 101.384 119.97 101.384C120.157 101.384 120.287 101.851 120.362 102.784C120.474 103.717 120.53 104.968 120.53 106.536C120.53 108.067 120.157 109.728 119.41 111.52C118.701 113.275 117.655 114.693 116.274 115.776C115.49 116.373 114.762 116.672 114.09 116.672C113.455 116.672 112.914 116.523 112.466 116.224C112.055 115.963 111.682 115.515 111.346 114.88C110.786 113.984 110.226 112.827 109.666 111.408C109.143 109.989 108.882 108.459 108.882 106.816C108.882 105.173 109.013 103.512 109.274 101.832C109.535 100.152 109.666 99.032 109.666 98.472C109.666 97.8747 109.367 97.128 108.77 96.232C108.173 95.2987 107.874 94.7387 107.874 94.552C107.874 94.3653 107.93 94.1787 108.042 93.992C108.191 93.768 108.359 93.5627 108.546 93.376C108.77 93.152 108.975 92.9653 109.162 92.816C109.386 92.6667 109.629 92.48 109.89 92.256C110.749 91.5467 111.533 91.192 112.242 91.192C112.951 91.192 113.567 91.4347 114.09 91.92C114.65 92.4053 114.911 93.2453 114.874 94.44C114.874 95.6347 114.594 97.8933 114.034 101.216C113.325 105.472 112.97 107.917 112.97 108.552C112.97 109.187 113.138 109.504 113.474 109.504C114.221 109.504 116.106 107.115 119.13 102.336Z" fill="#121212"/>
<circle cx="48" cy="48" r="40" fill="#121212"/>
<circle cx="48" cy="48" r="38" stroke="white" stroke-width="4"/>
<circle cx="48" cy="48" r="45" stroke="white" stroke-width="6"/>
<circle cx="48" cy="48" r="42" stroke="#121212" stroke-width="6"/>
<path d="M84.8499 57.1117C78.4638 59.2171 72.6765 62.825 67.9746 67.632C63.2728 72.4391 59.7939 78.3049 57.8304 84.7361" stroke="white" stroke-width="3"/>
<path d="M47.564 86.5857C49.5613 76.9128 54.298 68.0183 61.2095 60.9624C68.1209 53.9066 76.9156 48.987 86.5451 46.7901" stroke="white" stroke-width="3"/>
<mask id="path-10-outside-1_155_319" maskUnits="userSpaceOnUse" x="22" y="25" width="53" height="43" fill="black">
<rect fill="white" x="22" y="25" width="53" height="43"/>
<path d="M60.068 48.256C60.2413 48.256 60.328 48.4467 60.328 48.828C60.328 49.2093 60.3106 49.5907 60.276 49.972C59.7213 56.5587 58.0746 61.3773 55.336 64.428C54.4346 65.4333 52.9613 65.9707 50.916 66.04C48.42 65.1387 47.172 62.9373 47.172 59.436C47.172 58.812 47.2413 58.032 47.38 57.096C47.5186 56.1253 48.68 49.4 50.864 36.92C47.8133 43.0907 45.8546 50.6133 44.988 59.488C44.884 60.528 44.7973 61.308 44.728 61.828C44.5893 62.9373 44.1213 63.492 43.324 63.492C42.2493 63.492 41.1053 62.6773 39.892 61.048C39.476 60.4933 39.268 59.8 39.268 58.968C39.268 58.136 39.2853 57.2173 39.32 56.212C39.3893 55.2067 39.4933 54.0973 39.632 52.884C39.7706 51.6707 39.8746 50.7 39.944 49.972C40.0133 49.244 40.1693 48.1347 40.412 46.644C40.6893 45.1533 40.8626 44.2 40.932 43.784C41.0013 43.3333 41.192 42.224 41.504 40.456C41.8506 38.688 42.0413 37.7 42.076 37.492C41.556 38.012 41.088 38.792 40.672 39.832C40.2906 40.872 39.9786 41.7213 39.736 42.38C39.4933 43.004 39.2506 43.7667 39.008 44.668C38.7653 45.5693 38.5573 46.3493 38.384 47.008C38.2106 47.6667 38.0026 48.464 37.76 49.4C37.552 50.336 37.396 51.0467 37.292 51.532C37.0493 52.4333 36.6506 54.1147 36.096 56.576C35.5413 59.0373 35.1773 60.5973 35.004 61.256C34.8653 61.88 34.744 62.4 34.64 62.816C34.5706 63.1973 34.5013 63.4747 34.432 63.648C34.3973 63.7867 34.3106 63.9947 34.172 64.272C33.8946 64.7573 33.444 65 32.82 65C32.2306 65 31.7106 64.792 31.26 64.376C30.844 63.9253 30.5666 63.544 30.428 63.232C30.2893 62.8853 30.0986 62.4173 29.856 61.828C29.648 61.204 29.544 60.7187 29.544 60.372C29.544 60.0253 29.648 59.4187 29.856 58.552C30.064 57.6853 30.3066 56.6107 30.584 55.328C30.896 54.0453 31.0866 53.2307 31.156 52.884C31.26 52.5027 31.4333 51.7227 31.676 50.544C31.9533 49.3653 32.144 48.5333 32.248 48.048C32.352 47.5627 32.508 46.8 32.716 45.76C32.924 44.6853 33.08 43.8533 33.184 43.264C33.288 42.64 33.4266 41.86 33.6 40.924C33.7733 39.9533 33.912 39.104 34.016 38.376C34.3626 36.088 34.5706 34.4933 34.64 33.592V33.228C34.64 32.604 34.5013 32.292 34.224 32.292C33.9466 32.292 33.496 32.7773 32.872 33.748C32.248 34.7187 31.8146 35.464 31.572 35.984C31.3293 36.504 31.156 37.2147 31.052 38.116C30.5666 42.9347 29.3186 46.852 27.308 49.868C27.0653 50.2147 26.684 50.388 26.164 50.388C25.644 50.388 25.0893 50.1107 24.5 49.556C23.9453 49.0013 23.668 48.4293 23.668 47.84C23.668 44.304 24.864 40.2133 27.256 35.568C28.192 33.8 28.9546 31.1827 29.544 27.716C30.48 29.1027 31.052 30.0213 31.26 30.472C31.5026 30.9227 31.7626 31.148 32.04 31.148C32.1786 31.148 32.4906 30.94 32.976 30.524C33.4613 30.108 34.172 29.9 35.108 29.9C36.0786 29.9 36.8586 30.1427 37.448 30.628C38.0373 31.1133 38.4013 31.668 38.54 32.292C38.7133 32.916 38.8346 33.852 38.904 35.1C39.112 34.9267 39.476 34.5973 39.996 34.112C41.1053 33.1413 42.076 32.656 42.908 32.656C43.7746 32.656 44.5373 33.124 45.196 34.06C45.8893 34.9613 46.2013 35.8973 46.132 36.868C46.548 36.3827 47.3106 35.1867 48.42 33.28C49.2173 32.032 50.2746 31.408 51.592 31.408C53.776 31.408 54.868 32.396 54.868 34.372C54.868 35.2733 54.452 37.7693 53.62 41.86C52.788 45.9507 52.1813 49.3307 51.8 52C51.4186 54.6347 51.228 57.1307 51.228 59.488V60.476C52.372 59.5053 53.4813 58.292 54.556 56.836C55.6653 55.3453 56.48 54.1667 57 53.3C57.52 52.3987 58.3346 50.96 59.444 48.984C59.756 48.4987 59.964 48.256 60.068 48.256ZM72.0198 29.224C72.0198 30.368 71.5345 31.9627 70.5638 34.008C69.5932 36.0187 68.6745 37.4747 67.8078 38.376C67.6692 38.584 67.4612 38.688 67.1838 38.688C66.3172 38.688 65.8838 37.9947 65.8838 36.608C65.8838 35.2213 66.4905 33.28 67.7038 30.784C67.9465 30.264 68.1025 29.7267 68.1718 29.172C68.2412 28.6173 68.2758 28.3053 68.2758 28.236C68.3105 28.132 68.3278 28.0627 68.3278 28.028C68.3625 27.9587 68.3798 27.8893 68.3798 27.82C68.4145 27.716 68.4318 27.6467 68.4318 27.612C68.4665 27.5427 68.5012 27.4907 68.5358 27.456C68.5705 27.3867 68.6052 27.3347 68.6398 27.3C68.7438 27.2307 69.0212 27.196 69.4718 27.196C69.9225 27.196 70.4598 27.3867 71.0838 27.768C71.7078 28.1493 72.0198 28.6347 72.0198 29.224ZM72.5398 52.312C72.9212 51.7227 73.1812 51.428 73.3198 51.428C73.4932 51.428 73.6145 51.8613 73.6838 52.728C73.7878 53.5947 73.8398 54.756 73.8398 56.212C73.8398 57.6333 73.4932 59.176 72.7998 60.84C72.1412 62.4693 71.1705 63.7867 69.8878 64.792C69.1598 65.3467 68.4838 65.624 67.8598 65.624C67.2705 65.624 66.7678 65.4853 66.3518 65.208C65.9705 64.9653 65.6238 64.5493 65.3118 63.96C64.7918 63.128 64.2718 62.0533 63.7518 60.736C63.2665 59.4187 63.0238 57.9973 63.0238 56.472C63.0238 54.9467 63.1452 53.404 63.3878 51.844C63.6305 50.284 63.7518 49.244 63.7518 48.724C63.7518 48.1693 63.4745 47.476 62.9198 46.644C62.3652 45.7773 62.0878 45.2573 62.0878 45.084C62.0878 44.9107 62.1398 44.7373 62.2438 44.564C62.3825 44.356 62.5385 44.1653 62.7118 43.992C62.9198 43.784 63.1105 43.6107 63.2838 43.472C63.4918 43.3333 63.7172 43.16 63.9598 42.952C64.7572 42.2933 65.4852 41.964 66.1438 41.964C66.8025 41.964 67.3745 42.1893 67.8598 42.64C68.3798 43.0907 68.6225 43.8707 68.5878 44.98C68.5878 46.0893 68.3278 48.1867 67.8078 51.272C67.1492 55.224 66.8198 57.4947 66.8198 58.084C66.8198 58.6733 66.9758 58.968 67.2878 58.968C67.9812 58.968 69.7318 56.7493 72.5398 52.312Z"/>
</mask>
<path d="M60.068 48.256C60.2413 48.256 60.328 48.4467 60.328 48.828C60.328 49.2093 60.3106 49.5907 60.276 49.972C59.7213 56.5587 58.0746 61.3773 55.336 64.428C54.4346 65.4333 52.9613 65.9707 50.916 66.04C48.42 65.1387 47.172 62.9373 47.172 59.436C47.172 58.812 47.2413 58.032 47.38 57.096C47.5186 56.1253 48.68 49.4 50.864 36.92C47.8133 43.0907 45.8546 50.6133 44.988 59.488C44.884 60.528 44.7973 61.308 44.728 61.828C44.5893 62.9373 44.1213 63.492 43.324 63.492C42.2493 63.492 41.1053 62.6773 39.892 61.048C39.476 60.4933 39.268 59.8 39.268 58.968C39.268 58.136 39.2853 57.2173 39.32 56.212C39.3893 55.2067 39.4933 54.0973 39.632 52.884C39.7706 51.6707 39.8746 50.7 39.944 49.972C40.0133 49.244 40.1693 48.1347 40.412 46.644C40.6893 45.1533 40.8626 44.2 40.932 43.784C41.0013 43.3333 41.192 42.224 41.504 40.456C41.8506 38.688 42.0413 37.7 42.076 37.492C41.556 38.012 41.088 38.792 40.672 39.832C40.2906 40.872 39.9786 41.7213 39.736 42.38C39.4933 43.004 39.2506 43.7667 39.008 44.668C38.7653 45.5693 38.5573 46.3493 38.384 47.008C38.2106 47.6667 38.0026 48.464 37.76 49.4C37.552 50.336 37.396 51.0467 37.292 51.532C37.0493 52.4333 36.6506 54.1147 36.096 56.576C35.5413 59.0373 35.1773 60.5973 35.004 61.256C34.8653 61.88 34.744 62.4 34.64 62.816C34.5706 63.1973 34.5013 63.4747 34.432 63.648C34.3973 63.7867 34.3106 63.9947 34.172 64.272C33.8946 64.7573 33.444 65 32.82 65C32.2306 65 31.7106 64.792 31.26 64.376C30.844 63.9253 30.5666 63.544 30.428 63.232C30.2893 62.8853 30.0986 62.4173 29.856 61.828C29.648 61.204 29.544 60.7187 29.544 60.372C29.544 60.0253 29.648 59.4187 29.856 58.552C30.064 57.6853 30.3066 56.6107 30.584 55.328C30.896 54.0453 31.0866 53.2307 31.156 52.884C31.26 52.5027 31.4333 51.7227 31.676 50.544C31.9533 49.3653 32.144 48.5333 32.248 48.048C32.352 47.5627 32.508 46.8 32.716 45.76C32.924 44.6853 33.08 43.8533 33.184 43.264C33.288 42.64 33.4266 41.86 33.6 40.924C33.7733 39.9533 33.912 39.104 34.016 38.376C34.3626 36.088 34.5706 34.4933 34.64 33.592V33.228C34.64 32.604 34.5013 32.292 34.224 32.292C33.9466 32.292 33.496 32.7773 32.872 33.748C32.248 34.7187 31.8146 35.464 31.572 35.984C31.3293 36.504 31.156 37.2147 31.052 38.116C30.5666 42.9347 29.3186 46.852 27.308 49.868C27.0653 50.2147 26.684 50.388 26.164 50.388C25.644 50.388 25.0893 50.1107 24.5 49.556C23.9453 49.0013 23.668 48.4293 23.668 47.84C23.668 44.304 24.864 40.2133 27.256 35.568C28.192 33.8 28.9546 31.1827 29.544 27.716C30.48 29.1027 31.052 30.0213 31.26 30.472C31.5026 30.9227 31.7626 31.148 32.04 31.148C32.1786 31.148 32.4906 30.94 32.976 30.524C33.4613 30.108 34.172 29.9 35.108 29.9C36.0786 29.9 36.8586 30.1427 37.448 30.628C38.0373 31.1133 38.4013 31.668 38.54 32.292C38.7133 32.916 38.8346 33.852 38.904 35.1C39.112 34.9267 39.476 34.5973 39.996 34.112C41.1053 33.1413 42.076 32.656 42.908 32.656C43.7746 32.656 44.5373 33.124 45.196 34.06C45.8893 34.9613 46.2013 35.8973 46.132 36.868C46.548 36.3827 47.3106 35.1867 48.42 33.28C49.2173 32.032 50.2746 31.408 51.592 31.408C53.776 31.408 54.868 32.396 54.868 34.372C54.868 35.2733 54.452 37.7693 53.62 41.86C52.788 45.9507 52.1813 49.3307 51.8 52C51.4186 54.6347 51.228 57.1307 51.228 59.488V60.476C52.372 59.5053 53.4813 58.292 54.556 56.836C55.6653 55.3453 56.48 54.1667 57 53.3C57.52 52.3987 58.3346 50.96 59.444 48.984C59.756 48.4987 59.964 48.256 60.068 48.256ZM72.0198 29.224C72.0198 30.368 71.5345 31.9627 70.5638 34.008C69.5932 36.0187 68.6745 37.4747 67.8078 38.376C67.6692 38.584 67.4612 38.688 67.1838 38.688C66.3172 38.688 65.8838 37.9947 65.8838 36.608C65.8838 35.2213 66.4905 33.28 67.7038 30.784C67.9465 30.264 68.1025 29.7267 68.1718 29.172C68.2412 28.6173 68.2758 28.3053 68.2758 28.236C68.3105 28.132 68.3278 28.0627 68.3278 28.028C68.3625 27.9587 68.3798 27.8893 68.3798 27.82C68.4145 27.716 68.4318 27.6467 68.4318 27.612C68.4665 27.5427 68.5012 27.4907 68.5358 27.456C68.5705 27.3867 68.6052 27.3347 68.6398 27.3C68.7438 27.2307 69.0212 27.196 69.4718 27.196C69.9225 27.196 70.4598 27.3867 71.0838 27.768C71.7078 28.1493 72.0198 28.6347 72.0198 29.224ZM72.5398 52.312C72.9212 51.7227 73.1812 51.428 73.3198 51.428C73.4932 51.428 73.6145 51.8613 73.6838 52.728C73.7878 53.5947 73.8398 54.756 73.8398 56.212C73.8398 57.6333 73.4932 59.176 72.7998 60.84C72.1412 62.4693 71.1705 63.7867 69.8878 64.792C69.1598 65.3467 68.4838 65.624 67.8598 65.624C67.2705 65.624 66.7678 65.4853 66.3518 65.208C65.9705 64.9653 65.6238 64.5493 65.3118 63.96C64.7918 63.128 64.2718 62.0533 63.7518 60.736C63.2665 59.4187 63.0238 57.9973 63.0238 56.472C63.0238 54.9467 63.1452 53.404 63.3878 51.844C63.6305 50.284 63.7518 49.244 63.7518 48.724C63.7518 48.1693 63.4745 47.476 62.9198 46.644C62.3652 45.7773 62.0878 45.2573 62.0878 45.084C62.0878 44.9107 62.1398 44.7373 62.2438 44.564C62.3825 44.356 62.5385 44.1653 62.7118 43.992C62.9198 43.784 63.1105 43.6107 63.2838 43.472C63.4918 43.3333 63.7172 43.16 63.9598 42.952C64.7572 42.2933 65.4852 41.964 66.1438 41.964C66.8025 41.964 67.3745 42.1893 67.8598 42.64C68.3798 43.0907 68.6225 43.8707 68.5878 44.98C68.5878 46.0893 68.3278 48.1867 67.8078 51.272C67.1492 55.224 66.8198 57.4947 66.8198 58.084C66.8198 58.6733 66.9758 58.968 67.2878 58.968C67.9812 58.968 69.7318 56.7493 72.5398 52.312Z" fill="white"/>
<path d="M60.276 49.972L59.2801 49.8815L59.2795 49.8881L60.276 49.972ZM55.336 64.428L54.5918 63.76L54.5914 63.7605L55.336 64.428ZM50.916 66.04L50.5763 66.9806L50.7574 67.0459L50.9498 67.0394L50.916 66.04ZM47.38 57.096L48.3692 57.2426L48.3699 57.2374L47.38 57.096ZM50.864 36.92L51.849 37.0924L49.9675 36.4768L50.864 36.92ZM44.988 59.488L45.983 59.5875L45.9832 59.5852L44.988 59.488ZM44.728 61.828L43.7367 61.6958L43.7357 61.704L44.728 61.828ZM39.892 61.048L40.694 60.4507L40.692 60.448L39.892 61.048ZM39.32 56.212L38.3223 56.1432L38.3212 56.1604L38.3206 56.1775L39.32 56.212ZM39.632 52.884L38.6384 52.7705L38.6384 52.7705L39.632 52.884ZM40.412 46.644L39.4288 46.4611L39.4268 46.4722L39.425 46.4833L40.412 46.644ZM40.932 43.784L41.9184 43.9484L41.9203 43.9361L40.932 43.784ZM41.504 40.456L40.5227 40.2636L40.5208 40.2729L40.5192 40.2822L41.504 40.456ZM42.076 37.492L43.0624 37.6564L43.5754 34.5784L41.3689 36.7849L42.076 37.492ZM40.672 39.832L39.7435 39.4606L39.7381 39.4741L39.7331 39.4877L40.672 39.832ZM39.736 42.38L40.668 42.7424L40.6712 42.7341L40.6743 42.7257L39.736 42.38ZM39.008 44.668L38.0424 44.408L38.0424 44.408L39.008 44.668ZM37.76 49.4L36.792 49.149L36.7876 49.166L36.7838 49.1831L37.76 49.4ZM37.292 51.532L38.2576 51.792L38.2643 51.7669L38.2698 51.7415L37.292 51.532ZM36.096 56.576L37.0715 56.7958L37.0715 56.7958L36.096 56.576ZM35.004 61.256L34.0369 61.0015L34.032 61.0202L34.0278 61.0391L35.004 61.256ZM34.64 62.816L33.6698 62.5735L33.6619 62.6051L33.6561 62.6371L34.64 62.816ZM34.432 63.648L33.5035 63.2766L33.4783 63.3396L33.4618 63.4055L34.432 63.648ZM34.172 64.272L35.0402 64.7681L35.054 64.744L35.0664 64.7192L34.172 64.272ZM31.26 64.376L30.5252 65.0543L30.5523 65.0837L30.5817 65.1108L31.26 64.376ZM30.428 63.232L29.4995 63.6034L29.5065 63.6209L29.5142 63.6381L30.428 63.232ZM29.856 61.828L28.9073 62.1442L28.9182 62.1769L28.9313 62.2087L29.856 61.828ZM29.856 58.552L30.8284 58.7854L30.8284 58.7854L29.856 58.552ZM30.584 55.328L29.6123 55.0916L29.6093 55.1041L29.6066 55.1167L30.584 55.328ZM31.156 52.884L30.1912 52.6209L30.1821 52.6541L30.1754 52.6879L31.156 52.884ZM31.676 50.544L30.7026 50.315L30.6993 50.3286L30.6965 50.3423L31.676 50.544ZM32.248 48.048L33.2258 48.2575L33.2258 48.2575L32.248 48.048ZM32.716 45.76L33.6966 45.9561L33.6977 45.95L32.716 45.76ZM33.184 43.264L34.1688 43.4378L34.1704 43.4284L33.184 43.264ZM33.6 40.924L34.5833 41.1061L34.5844 41.0998L33.6 40.924ZM34.016 38.376L33.0272 38.2262L33.026 38.2346L34.016 38.376ZM34.64 33.592L35.637 33.6687L35.64 33.6304V33.592H34.64ZM32.872 33.748L32.0308 33.2072L32.0308 33.2072L32.872 33.748ZM31.572 35.984L30.6658 35.5611L30.6658 35.5611L31.572 35.984ZM31.052 38.116L30.0586 38.0014L30.0577 38.0086L30.057 38.0158L31.052 38.116ZM27.308 49.868L28.1272 50.4415L28.1337 50.4322L28.14 50.4227L27.308 49.868ZM24.5 49.556L23.7929 50.2631L23.8036 50.2738L23.8146 50.2842L24.5 49.556ZM27.256 35.568L26.3721 35.1001L26.3669 35.1102L27.256 35.568ZM29.544 27.716L30.3728 27.1565L28.9764 25.0878L28.5581 27.5484L29.544 27.716ZM31.26 30.472L30.352 30.8911L30.3649 30.919L30.3795 30.9461L31.26 30.472ZM32.976 30.524L32.3252 29.7647L32.3252 29.7647L32.976 30.524ZM37.448 30.628L36.8123 31.3999L36.8123 31.3999L37.448 30.628ZM38.54 32.292L37.5638 32.5089L37.5695 32.5345L37.5765 32.5596L38.54 32.292ZM38.904 35.1L37.9055 35.1555L38.0159 37.1418L39.5442 35.8682L38.904 35.1ZM39.996 34.112L39.3375 33.3594L39.3254 33.37L39.3136 33.3809L39.996 34.112ZM45.196 34.06L44.3782 34.6355L44.3904 34.6529L44.4033 34.6697L45.196 34.06ZM46.132 36.868L45.1345 36.7968L44.9185 39.8203L46.8912 37.5188L46.132 36.868ZM48.42 33.28L47.5773 32.7416L47.5661 32.7591L47.5556 32.7771L48.42 33.28ZM53.62 41.86L52.64 41.6607L53.62 41.86ZM51.8 52L52.7897 52.1432L52.7899 52.1414L51.8 52ZM51.228 60.476H50.228V62.6359L51.8749 61.2385L51.228 60.476ZM54.556 56.836L53.7537 56.239L53.7514 56.2421L54.556 56.836ZM57 53.3L57.8575 53.8145L57.8619 53.8071L57.8662 53.7997L57 53.3ZM59.444 48.984L58.6028 48.4432L58.5866 48.4684L58.572 48.4945L59.444 48.984ZM60.068 49.256C59.9156 49.256 59.7426 49.2098 59.5904 49.0982C59.4493 48.9947 59.3812 48.8757 59.3526 48.8128C59.3065 48.7114 59.328 48.6818 59.328 48.828H61.328C61.328 48.5929 61.3061 48.2773 61.1733 47.9852C61.1014 47.8269 60.9791 47.6364 60.7731 47.4853C60.5559 47.3261 60.3071 47.256 60.068 47.256V49.256ZM59.328 48.828C59.328 49.179 59.312 49.5301 59.2801 49.8815L61.2719 50.0625C61.3093 49.6512 61.328 49.2397 61.328 48.828H59.328ZM59.2795 49.8881C58.7328 56.3805 57.12 60.9438 54.5918 63.76L56.0801 65.096C59.0293 61.8109 60.7098 56.7368 61.2724 50.0559L59.2795 49.8881ZM54.5914 63.7605C53.9475 64.4786 52.7942 64.9758 50.8821 65.0406L50.9498 67.0394C53.1284 66.9656 54.9218 66.388 56.0805 65.0955L54.5914 63.7605ZM51.2556 65.0994C50.2202 64.7255 49.4781 64.1021 48.9779 63.2198C48.4657 62.3163 48.172 61.077 48.172 59.436H46.172C46.172 61.2964 46.5023 62.9083 47.238 64.2062C47.9858 65.5252 49.1157 66.4531 50.5763 66.9806L51.2556 65.0994ZM48.172 59.436C48.172 58.8792 48.2344 58.1521 48.3692 57.2425L46.3908 56.9495C46.2482 57.9119 46.172 58.7448 46.172 59.436H48.172ZM48.3699 57.2374C48.5057 56.2872 49.6624 49.5873 51.849 37.0924L49.8789 36.7476C47.6975 49.2127 46.5316 55.9634 46.39 56.9546L48.3699 57.2374ZM49.9675 36.4768C46.8501 42.7826 44.8678 50.4296 43.9927 59.3908L45.9832 59.5852C46.8414 50.7971 48.7766 43.3987 51.7604 37.3632L49.9675 36.4768ZM43.9929 59.3885C43.8892 60.426 43.8038 61.1927 43.7367 61.6958L45.7192 61.9602C45.7908 61.4233 45.8788 60.63 45.983 59.5875L43.9929 59.3885ZM43.7357 61.704C43.6783 62.1627 43.5674 62.3615 43.5087 62.4311C43.4852 62.459 43.4697 62.4673 43.4587 62.4721C43.4452 62.4781 43.4063 62.492 43.324 62.492V64.492C43.9844 64.492 44.593 64.2474 45.0373 63.7209C45.4465 63.2358 45.6389 62.6026 45.7202 61.952L43.7357 61.704ZM43.324 62.492C42.7584 62.492 41.8757 62.0376 40.694 60.4507L39.0899 61.6453C40.3349 63.3171 41.7402 64.492 43.324 64.492V62.492ZM40.692 60.448C40.4302 60.0989 40.268 59.6281 40.268 58.968H38.268C38.268 59.9719 38.5218 60.8877 39.092 61.648L40.692 60.448ZM40.268 58.968C40.268 58.1496 40.285 57.2426 40.3194 56.2465L38.3206 56.1775C38.2856 57.1921 38.268 58.1224 38.268 58.968H40.268ZM40.3176 56.2808C40.3857 55.2931 40.4882 54.199 40.6255 52.9975L38.6384 52.7705C38.4984 53.9957 38.3929 55.1202 38.3223 56.1432L40.3176 56.2808ZM40.6255 52.9975C40.7645 51.7815 40.8693 50.8038 40.9395 50.0668L38.9485 49.8772C38.88 50.5962 38.7768 51.5598 38.6384 52.7705L40.6255 52.9975ZM40.9395 50.0668C41.0055 49.3735 41.157 48.2913 41.399 46.8047L39.425 46.4833C39.1816 47.978 39.0211 49.1145 38.9485 49.8772L40.9395 50.0668ZM41.3951 46.8269C41.6719 45.339 41.8472 44.3756 41.9184 43.9484L39.9456 43.6196C39.8781 44.0244 39.7067 44.9677 39.4288 46.4611L41.3951 46.8269ZM41.9203 43.9361C41.9876 43.4987 42.1761 42.4017 42.4888 40.6298L40.5192 40.2822C40.2079 42.0463 40.015 43.168 39.9436 43.6319L41.9203 43.9361ZM42.4853 40.6484C42.8297 38.8916 43.0246 37.8827 43.0624 37.6564L41.0896 37.3276C41.058 37.5173 40.8715 38.4844 40.5227 40.2636L42.4853 40.6484ZM41.3689 36.7849C40.7164 37.4373 40.1861 38.3542 39.7435 39.4606L41.6004 40.2034C41.9899 39.2298 42.3955 38.5867 42.7831 38.1991L41.3689 36.7849ZM39.7331 39.4877C39.3518 40.5275 39.04 41.3763 38.7976 42.0343L40.6743 42.7257C40.9172 42.0664 41.2294 41.2165 41.6108 40.1763L39.7331 39.4877ZM38.804 42.0176C38.5443 42.6852 38.291 43.4844 38.0424 44.408L39.9736 44.928C40.2102 44.049 40.4423 43.3228 40.668 42.7424L38.804 42.0176ZM38.0424 44.408C37.7994 45.3106 37.5908 46.0925 37.4169 46.7535L39.351 47.2625C39.5238 46.6062 39.7312 45.8281 39.9736 44.928L38.0424 44.408ZM37.4169 46.7535C37.2432 47.4137 37.0348 48.2123 36.792 49.149L38.728 49.651C38.9704 48.7157 39.1781 47.9196 39.351 47.2625L37.4169 46.7535ZM36.7838 49.1831C36.5756 50.1197 36.419 50.8333 36.3142 51.3225L38.2698 51.7415C38.373 51.26 38.5283 50.5523 38.7362 49.6169L36.7838 49.1831ZM36.3264 51.272C36.0776 52.1961 35.6747 53.8966 35.1204 56.3562L37.0715 56.7958C37.6266 54.3327 38.021 52.6706 38.2576 51.792L36.3264 51.272ZM35.1204 56.3562C34.5645 58.8231 34.2047 60.3638 34.0369 61.0015L35.971 61.5105C36.1499 60.8309 36.5181 59.2516 37.0715 56.7958L35.1204 56.3562ZM34.0278 61.0391C33.8902 61.6582 33.7709 62.169 33.6698 62.5735L35.6101 63.0585C35.717 62.631 35.8404 62.1018 35.9802 61.4729L34.0278 61.0391ZM33.6561 62.6371C33.5888 63.0071 33.5335 63.2016 33.5035 63.2766L35.3604 64.0194C35.4691 63.7478 35.5524 63.3876 35.6238 62.9949L33.6561 62.6371ZM33.4618 63.4055C33.4623 63.4035 33.4601 63.4125 33.4524 63.4346C33.4448 63.4562 33.4337 63.4854 33.4179 63.5234C33.386 63.6 33.3401 63.6996 33.2775 63.8248L35.0664 64.7192C35.2089 64.4341 35.339 64.1429 35.4021 63.8905L33.4618 63.4055ZM33.3037 63.7759C33.2281 63.9081 33.1356 64 32.82 64V66C33.7523 66 34.5611 65.6065 35.0402 64.7681L33.3037 63.7759ZM32.82 64C32.4931 64 32.2125 63.8943 31.9382 63.6412L30.5817 65.1108C31.2088 65.6897 31.9682 66 32.82 66V64ZM31.9948 63.6977C31.6037 63.2741 31.4139 62.9882 31.3418 62.8259L29.5142 63.6381C29.7193 64.0998 30.0842 64.5766 30.5252 65.0543L31.9948 63.6977ZM31.3564 62.8606C31.216 62.5094 31.0238 62.0379 30.7806 61.4473L28.9313 62.2087C29.1734 62.7968 29.3626 63.2613 29.4995 63.6034L31.3564 62.8606ZM30.8047 61.5118C30.6059 60.9155 30.544 60.5539 30.544 60.372H28.544C28.544 60.8835 28.6901 61.4925 28.9073 62.1442L30.8047 61.5118ZM30.544 60.372C30.544 60.1584 30.6188 59.6584 30.8284 58.7854L28.8836 58.3186C28.6771 59.1789 28.544 59.8923 28.544 60.372H30.544ZM30.8284 58.7854C31.0387 57.9088 31.2831 56.8263 31.5614 55.5393L29.6066 55.1167C29.3301 56.3951 29.0892 57.4618 28.8836 58.3186L30.8284 58.7854ZM31.5556 55.5644C31.866 54.2882 32.0623 53.4513 32.1365 53.0801L30.1754 52.6879C30.111 53.01 29.9259 53.8025 29.6123 55.0916L31.5556 55.5644ZM32.1207 53.1471C32.2345 52.7301 32.4139 51.9188 32.6554 50.7457L30.6965 50.3423C30.4527 51.5265 30.2855 52.2752 30.1912 52.6209L32.1207 53.1471ZM32.6494 50.773C32.9267 49.5945 33.1194 48.7537 33.2258 48.2575L31.2702 47.8385C31.1685 48.313 30.9799 49.1362 30.7026 50.315L32.6494 50.773ZM33.2258 48.2575C33.3313 47.7651 33.4884 46.9968 33.6965 45.9561L31.7354 45.5639C31.5275 46.6032 31.3726 47.3603 31.2702 47.8385L33.2258 48.2575ZM33.6977 45.95C33.9061 44.8736 34.0633 44.0352 34.1688 43.4378L32.1992 43.0902C32.0966 43.6714 31.9418 44.4971 31.7342 45.57L33.6977 45.95ZM34.1704 43.4284C34.273 42.8124 34.4105 42.0388 34.5833 41.1061L32.6167 40.7419C32.4427 41.6812 32.3029 42.4676 32.1976 43.0996L34.1704 43.4284ZM34.5844 41.0998C34.7591 40.1213 34.8998 39.26 35.0059 38.5174L33.026 38.2346C32.9241 38.948 32.7875 39.7854 32.6155 40.7482L34.5844 41.0998ZM35.0047 38.5258C35.3511 36.2395 35.5645 34.6112 35.637 33.6687L33.6429 33.5153C33.5768 34.3754 33.3742 35.9365 33.0273 38.2262L35.0047 38.5258ZM35.64 33.592V33.228H33.64V33.592H35.64ZM35.64 33.228C35.64 32.8729 35.6052 32.4696 35.4498 32.1199C35.3669 31.9333 35.2306 31.719 35.006 31.5505C34.769 31.3728 34.4943 31.292 34.224 31.292V33.292C34.0923 33.292 33.939 33.2502 33.806 33.1505C33.6853 33.06 33.6358 32.9627 33.6222 32.9321C33.609 32.9025 33.616 32.9059 33.6248 32.965C33.6331 33.0211 33.64 33.1066 33.64 33.228H35.64ZM34.224 31.292C33.8735 31.292 33.5968 31.4389 33.4288 31.5509C33.2485 31.6711 33.0868 31.823 32.9452 31.9755C32.6607 32.2819 32.355 32.7029 32.0308 33.2072L33.7131 34.2888C34.013 33.8224 34.2445 33.5155 34.4108 33.3365C34.4502 33.294 34.4817 33.2634 34.5052 33.2424C34.5292 33.2209 34.5401 33.2138 34.5382 33.215C34.5372 33.2157 34.5125 33.2323 34.4657 33.25C34.4185 33.2679 34.335 33.292 34.224 33.292V31.292ZM32.0308 33.2072C31.4016 34.186 30.9381 34.9776 30.6658 35.5611L32.4782 36.4069C32.6912 35.9504 33.0943 35.2514 33.7131 34.2888L32.0308 33.2072ZM30.6658 35.5611C30.3592 36.2182 30.1686 37.0478 30.0586 38.0014L32.0454 38.2306C32.1433 37.3816 32.2994 36.7898 32.4782 36.4069L30.6658 35.5611ZM30.057 38.0158C29.5828 42.7243 28.3707 46.4712 26.4759 49.3133L28.14 50.4227C30.2666 47.2328 31.5505 43.145 32.0469 38.2162L30.057 38.0158ZM26.4887 49.2945C26.4689 49.3229 26.4522 49.3358 26.4262 49.3476C26.3929 49.3628 26.3148 49.388 26.164 49.388V51.388C26.9259 51.388 27.6537 51.1178 28.1272 50.4415L26.4887 49.2945ZM26.164 49.388C26.0086 49.388 25.6887 49.3016 25.1853 48.8278L23.8146 50.2842C24.4899 50.9197 25.2793 51.388 26.164 51.388V49.388ZM25.2071 48.8489C24.7758 48.4176 24.668 48.0854 24.668 47.84H22.668C22.668 48.7733 23.1148 49.5851 23.7929 50.2631L25.2071 48.8489ZM24.668 47.84C24.668 44.5211 25.7938 40.5919 28.145 36.0258L26.3669 35.1102C23.9341 39.8347 22.668 44.0869 22.668 47.84H24.668ZM28.1398 36.0359C29.1496 34.1285 29.934 31.3884 30.5298 27.8836L28.5581 27.5484C27.9753 30.9769 27.2344 33.4715 26.3722 35.1001L28.1398 36.0359ZM28.7151 28.2755C29.6627 29.6793 30.1845 30.528 30.352 30.8911L32.1679 30.0529C31.9195 29.5146 31.2972 28.5261 30.3728 27.1565L28.7151 28.2755ZM30.3795 30.9461C30.6489 31.4465 31.1634 32.148 32.04 32.148V30.148C32.1101 30.148 32.1729 30.163 32.2219 30.1836C32.2683 30.203 32.291 30.2225 32.2919 30.2233C32.2923 30.2236 32.2765 30.2098 32.2477 30.171C32.2192 30.1327 32.1828 30.0766 32.1404 29.9979L30.3795 30.9461ZM32.04 32.148C32.2921 32.148 32.4956 32.0631 32.5955 32.017C32.7163 31.9612 32.8309 31.8919 32.9327 31.824C33.1373 31.6876 33.3716 31.502 33.6268 31.2833L32.3252 29.7647C32.095 29.962 31.9306 30.0884 31.8233 30.1599C31.769 30.1961 31.7493 30.2048 31.7574 30.201C31.7624 30.1987 31.7862 30.1879 31.8254 30.1767C31.8618 30.1663 31.9375 30.148 32.04 30.148V32.148ZM33.6268 31.2833C33.8629 31.0809 34.3025 30.9 35.108 30.9V28.9C34.0414 28.9 33.0597 29.1351 32.3252 29.7647L33.6268 31.2833ZM35.108 30.9C35.911 30.9 36.446 31.0983 36.8123 31.3999L38.0837 29.8561C37.2713 29.187 36.2463 28.9 35.108 28.9V30.9ZM36.8123 31.3999C37.264 31.772 37.4824 32.1428 37.5638 32.5089L39.5162 32.0751C39.3202 31.1932 38.8106 30.4547 38.0837 29.8561L36.8123 31.3999ZM37.5765 32.5596C37.7202 33.0771 37.8372 33.926 37.9055 35.1555L39.9024 35.0445C39.8321 33.778 39.7064 32.7549 39.5035 32.0244L37.5765 32.5596ZM39.5442 35.8682C39.7766 35.6745 40.1596 35.3271 40.6783 34.8431L39.3136 33.3809C38.7923 33.8675 38.4474 34.1788 38.2638 34.3318L39.5442 35.8682ZM40.6545 34.8646C41.7085 33.9423 42.4458 33.656 42.908 33.656V31.656C41.7061 31.656 40.5021 32.3404 39.3375 33.3594L40.6545 34.8646ZM42.908 33.656C43.3492 33.656 43.8407 33.8717 44.3782 34.6355L46.0138 33.4845C45.2339 32.3763 44.2001 31.656 42.908 31.656V33.656ZM44.4033 34.6697C44.974 35.4115 45.1835 36.1109 45.1345 36.7968L47.1294 36.9392C47.2191 35.6837 46.8046 34.5111 45.9886 33.4503L44.4033 34.6697ZM46.8912 37.5188C47.3783 36.9505 48.1875 35.668 49.2843 33.7829L47.5556 32.7771C46.4338 34.7053 45.7176 35.8148 45.3727 36.2172L46.8912 37.5188ZM49.2627 33.8184C49.9032 32.8158 50.6631 32.408 51.592 32.408V30.408C49.8861 30.408 48.5314 31.2482 47.5773 32.7416L49.2627 33.8184ZM51.592 32.408C52.5532 32.408 53.0874 32.6276 53.3781 32.8905C53.6497 33.1363 53.868 33.5654 53.868 34.372H55.868C55.868 33.2026 55.5402 32.1497 54.7199 31.4075C53.9185 30.6824 52.8148 30.408 51.592 30.408V32.408ZM53.868 34.372C53.868 34.7275 53.7792 35.4978 53.5696 36.7556C53.3644 37.9869 53.055 39.6206 52.64 41.6607L54.5999 42.0593C55.017 40.0088 55.3316 38.3491 55.5424 37.0844C55.7487 35.8462 55.868 34.9178 55.868 34.372H53.868ZM52.64 41.6607C51.806 45.7614 51.1952 49.1624 50.81 51.8586L52.7899 52.1414C53.1674 49.4989 53.7699 46.1399 54.5999 42.0593L52.64 41.6607ZM50.8103 51.8568C50.4229 54.5329 50.228 57.0771 50.228 59.488H52.228C52.228 57.1843 52.4143 54.7364 52.7897 52.1432L50.8103 51.8568ZM50.228 59.488V60.476H52.228V59.488H50.228ZM51.8749 61.2385C53.0884 60.2089 54.2491 58.9357 55.3605 57.4299L53.7514 56.2421C52.7135 57.6483 51.6555 58.8018 50.581 59.7135L51.8749 61.2385ZM55.3582 57.433C56.4739 55.9338 57.3118 54.7239 57.8575 53.8145L56.1425 52.7855C55.6481 53.6094 54.8567 54.7568 53.7537 56.239L55.3582 57.433ZM57.8662 53.7997C58.3893 52.893 59.2064 51.4499 60.316 49.4735L58.572 48.4945C57.4629 50.4701 56.6507 51.9044 56.1338 52.8003L57.8662 53.7997ZM60.2851 49.5248C60.4327 49.2952 60.5337 49.1582 60.5932 49.0888C60.6248 49.052 60.6206 49.0627 60.5844 49.0909C60.5653 49.1057 60.5186 49.1401 60.447 49.1736C60.3781 49.2057 60.2455 49.256 60.068 49.256V47.256C59.6934 47.256 59.435 47.4511 59.3565 47.5121C59.2424 47.6009 59.1472 47.7027 59.0747 47.7872C58.9262 47.9604 58.7672 48.1874 58.6028 48.4432L60.2851 49.5248ZM70.5638 34.008L71.4644 34.4428L71.4673 34.4367L70.5638 34.008ZM67.8078 38.376L67.087 37.6829L67.0252 37.7471L66.9758 37.8213L67.8078 38.376ZM67.7038 30.784L68.6032 31.2212L68.6067 31.2141L68.61 31.2069L67.7038 30.784ZM68.1718 29.172L69.1641 29.296L69.1641 29.296L68.1718 29.172ZM68.2758 28.236L67.3272 27.9198L67.2758 28.0737V28.236H68.2758ZM68.3278 28.028L67.4334 27.5808L67.3278 27.7919V28.028H68.3278ZM68.3798 27.82L67.4312 27.5038L67.3798 27.6577V27.82H68.3798ZM68.4318 27.612L67.5374 27.1648L67.4318 27.3759V27.612H68.4318ZM68.5358 27.456L69.243 28.1631L69.3577 28.0483L69.4303 27.9032L68.5358 27.456ZM68.6398 27.3L68.0851 26.468L68.0028 26.5229L67.9327 26.5929L68.6398 27.3ZM71.0838 27.768L70.5624 28.6213L70.5624 28.6213L71.0838 27.768ZM72.5398 52.312L71.7002 51.7687L71.6948 51.7773L72.5398 52.312ZM73.6838 52.728L72.687 52.8077L72.6886 52.8275L72.691 52.8471L73.6838 52.728ZM72.7998 60.84L71.8767 60.4554L71.8727 60.4652L72.7998 60.84ZM69.8878 64.792L70.4939 65.5875L70.5047 65.5791L69.8878 64.792ZM66.3518 65.208L66.9065 64.3759L66.8977 64.37L66.8887 64.3643L66.3518 65.208ZM65.3118 63.96L66.1956 63.4921L66.1789 63.4604L66.1598 63.43L65.3118 63.96ZM63.7518 60.736L62.8135 61.0817L62.8175 61.0925L62.8217 61.1032L63.7518 60.736ZM63.3878 51.844L62.3997 51.6903L62.3997 51.6903L63.3878 51.844ZM62.9198 46.644L62.0776 47.1831L62.0826 47.1909L62.0878 47.1987L62.9198 46.644ZM62.2438 44.564L61.4118 44.0093L61.3986 44.0291L61.3864 44.0495L62.2438 44.564ZM62.7118 43.992L63.419 44.6991L63.419 44.6991L62.7118 43.992ZM63.2838 43.472L62.7291 42.6399L62.693 42.664L62.6591 42.6911L63.2838 43.472ZM63.9598 42.952L63.323 42.181L63.316 42.1868L63.3091 42.1927L63.9598 42.952ZM67.8598 42.64L67.1794 43.3728L67.192 43.3845L67.2049 43.3957L67.8598 42.64ZM68.5878 44.98L67.5883 44.9488L67.5878 44.9644V44.98H68.5878ZM67.8078 51.272L66.8218 51.1058L66.8215 51.1076L67.8078 51.272ZM71.0198 29.224C71.0198 30.1354 70.6179 31.5618 69.6604 33.5793L71.4673 34.4367C72.4512 32.3635 73.0198 30.6006 73.0198 29.224H71.0198ZM69.6633 33.5732C68.7085 35.5511 67.8444 36.8952 67.087 37.6829L68.5287 39.0691C69.5046 38.0541 70.4779 36.4862 71.4644 34.4427L69.6633 33.5732ZM66.9758 37.8213C66.9955 37.7917 67.0374 37.7472 67.1006 37.7156C67.1598 37.686 67.1969 37.688 67.1838 37.688V39.688C67.7525 39.688 68.2931 39.4509 68.6399 38.9307L66.9758 37.8213ZM67.1838 37.688C67.1023 37.688 67.0798 37.6725 67.0857 37.6756C67.0942 37.6802 67.0828 37.6796 67.0568 37.638C66.9868 37.5259 66.8838 37.2295 66.8838 36.608H64.8838C64.8838 37.3731 64.9976 38.1167 65.3608 38.698C65.7731 39.3576 66.4307 39.688 67.1838 39.688V37.688ZM66.8838 36.608C66.8838 35.4601 67.4027 33.6909 68.6032 31.2212L66.8045 30.3468C65.5784 32.8691 64.8838 34.9825 64.8838 36.608H66.8838ZM68.61 31.2069C68.8956 30.5949 69.0815 29.9569 69.1641 29.296L67.1796 29.048C67.1235 29.4964 66.9974 29.9331 66.7977 30.3611L68.61 31.2069ZM69.1641 29.296C69.199 29.0171 69.2256 28.7952 69.2437 28.6324C69.2583 28.5016 69.2758 28.3397 69.2758 28.236H67.2758C67.2758 28.2014 67.2782 28.1906 67.2735 28.243C67.27 28.2812 67.2643 28.3366 67.256 28.4116C67.2394 28.5608 67.214 28.7723 67.1796 29.048L69.1641 29.296ZM69.2245 28.5522C69.2462 28.4873 69.2678 28.4174 69.285 28.3485C69.2972 28.2998 69.3278 28.1745 69.3278 28.028H67.3278C67.3278 27.992 67.33 27.9628 67.332 27.9431C67.334 27.9229 67.3364 27.9068 67.3382 27.8961C67.3416 27.8755 67.3447 27.8636 67.3447 27.8635C67.345 27.8624 67.3439 27.8666 67.3408 27.8772C67.3377 27.8874 67.3333 27.9014 67.3272 27.9198L69.2245 28.5522ZM69.2223 28.4752C69.3181 28.2836 69.3798 28.0621 69.3798 27.82H67.3798C67.3798 27.7166 67.4069 27.6337 67.4334 27.5808L69.2223 28.4752ZM69.3285 28.1362C69.3502 28.0713 69.3718 28.0014 69.389 27.9325C69.4012 27.8838 69.4318 27.7585 69.4318 27.612H67.4318C67.4318 27.576 67.434 27.5468 67.436 27.5271C67.438 27.5069 67.4404 27.4908 67.4422 27.4801C67.4456 27.4595 67.4487 27.4476 67.4487 27.4475C67.449 27.4464 67.4479 27.4506 67.4448 27.4612C67.4417 27.4714 67.4373 27.4854 67.4312 27.5038L69.3285 28.1362ZM69.3263 28.0592C69.3293 28.0532 69.3262 28.0602 69.3159 28.0757C69.3061 28.0903 69.2828 28.1232 69.243 28.1631L67.8287 26.7489C67.6871 26.8905 67.5956 27.0484 67.5374 27.1648L69.3263 28.0592ZM69.4303 27.9032C69.4333 27.8972 69.4302 27.9042 69.4199 27.9197C69.4101 27.9344 69.3868 27.9672 69.347 28.0071L67.9327 26.5929C67.7911 26.7345 67.6996 26.8924 67.6414 27.0088L69.4303 27.9032ZM69.1946 28.132C69.1402 28.1683 69.0945 28.1893 69.0677 28.2003C69.04 28.2117 69.0206 28.2173 69.0135 28.2193C69.0011 28.2226 69.0099 28.2193 69.0499 28.2143C69.1303 28.2042 69.2662 28.196 69.4718 28.196V26.196C69.2268 26.196 68.9987 26.2051 68.8018 26.2297C68.6544 26.2481 68.3492 26.2919 68.0851 26.468L69.1946 28.132ZM69.4718 28.196C69.6571 28.196 70.0073 28.282 70.5624 28.6213L71.6053 26.9147C70.9124 26.4913 70.1879 26.196 69.4718 26.196V28.196ZM70.5624 28.6213C70.9719 28.8715 71.0198 29.0701 71.0198 29.224H73.0198C73.0198 28.1992 72.4438 27.4272 71.6053 26.9147L70.5624 28.6213ZM73.3794 52.8553C73.5606 52.5753 73.6895 52.4027 73.7707 52.3106C73.8127 52.263 73.8173 52.2654 73.7875 52.2874C73.7712 52.2995 73.7285 52.3294 73.6617 52.3585C73.5962 52.3871 73.4773 52.428 73.3198 52.428V50.428C72.9594 50.428 72.7012 50.6033 72.5987 50.6791C72.4692 50.7748 72.3589 50.8877 72.271 50.9874C72.0922 51.19 71.9005 51.4594 71.7003 51.7687L73.3794 52.8553ZM73.3198 52.428C72.8868 52.428 72.6623 52.1439 72.6132 52.0716C72.5607 51.9943 72.559 51.9551 72.5779 52.0226C72.6118 52.1438 72.6537 52.391 72.687 52.8077L74.6807 52.6483C74.6447 52.1983 74.5912 51.7955 74.5038 51.4834C74.4621 51.3343 74.3932 51.1325 74.267 50.9469C74.1442 50.7663 73.8396 50.428 73.3198 50.428V52.428ZM72.691 52.8471C72.7881 53.6569 72.8398 54.7733 72.8398 56.212H74.8398C74.8398 54.7387 74.7876 53.5324 74.6767 52.6089L72.691 52.8471ZM72.8398 56.212C72.8398 57.4711 72.5324 58.8818 71.8768 60.4554L73.7229 61.2246C74.4539 59.4702 74.8398 57.7956 74.8398 56.212H72.8398ZM71.8727 60.4652C71.2743 61.9455 70.4052 63.1159 69.271 64.0049L70.5047 65.5791C71.9358 64.4574 73.008 62.9932 73.727 61.2148L71.8727 60.4652ZM69.2818 63.9966C68.6499 64.478 68.1837 64.624 67.8598 64.624V66.624C68.784 66.624 69.6698 66.2153 70.4939 65.5874L69.2818 63.9966ZM67.8598 64.624C67.4319 64.624 67.1307 64.5254 66.9065 64.3759L65.7971 66.0401C66.405 66.4453 67.1091 66.624 67.8598 66.624V64.624ZM66.8887 64.3643C66.707 64.2487 66.4624 63.996 66.1956 63.4921L64.4281 64.4279C64.7853 65.1027 65.234 65.682 65.815 66.0517L66.8887 64.3643ZM66.1598 63.43C65.6829 62.6668 65.1885 61.6521 64.682 60.3688L62.8217 61.1032C63.3551 62.4546 63.9008 63.5892 64.4638 64.49L66.1598 63.43ZM64.6902 60.3903C64.249 59.1929 64.0238 57.8896 64.0238 56.472H62.0238C62.0238 58.1051 62.284 59.6445 62.8135 61.0817L64.6902 60.3903ZM64.0238 56.472C64.0238 54.9999 64.1409 53.5086 64.376 51.9977L62.3997 51.6903C62.1494 53.2994 62.0238 54.8934 62.0238 56.472H64.0238ZM64.376 51.9977C64.6165 50.4513 64.7518 49.3344 64.7518 48.724H62.7518C62.7518 49.1536 62.6445 50.1167 62.3997 51.6903L64.376 51.9977ZM64.7518 48.724C64.7518 47.8688 64.3398 46.9711 63.7519 46.0893L62.0878 47.1987C62.6093 47.9809 62.7518 48.4699 62.7518 48.724H64.7518ZM63.7621 46.1049C63.4902 45.6801 63.2986 45.3591 63.1782 45.1334C63.1174 45.0195 63.084 44.9469 63.0683 44.9076C63.0606 44.8883 63.0624 44.8899 63.0671 44.9076C63.0699 44.9183 63.0878 44.9847 63.0878 45.084H61.0878C61.0878 45.3326 61.1714 45.5504 61.2114 45.6504C61.265 45.7845 61.3356 45.9285 61.4135 46.0746C61.5705 46.3689 61.7948 46.7412 62.0776 47.1831L63.7621 46.1049ZM63.0878 45.084C63.0878 45.0909 63.0873 45.0971 63.0865 45.1023C63.0858 45.1075 63.0849 45.1106 63.0847 45.1113C63.0842 45.1129 63.0872 45.1021 63.1013 45.0785L61.3864 44.0495C61.2048 44.3521 61.0878 44.7012 61.0878 45.084H63.0878ZM63.0759 45.1187C63.1788 44.9644 63.2931 44.825 63.419 44.6991L62.0047 43.2849C61.7839 43.5057 61.5863 43.7476 61.4118 44.0093L63.0759 45.1187ZM63.419 44.6991C63.6087 44.5094 63.7715 44.3625 63.9085 44.2529L62.6591 42.6911C62.4495 42.8589 62.231 43.0586 62.0047 43.2849L63.419 44.6991ZM63.8385 44.304C64.0877 44.1379 64.3454 43.9386 64.6106 43.7113L63.3091 42.1927C63.089 42.3814 62.896 42.5287 62.7291 42.6399L63.8385 44.304ZM64.5967 43.723C65.3113 43.1326 65.8178 42.964 66.1438 42.964V40.964C65.1525 40.964 64.203 41.454 63.323 42.181L64.5967 43.723ZM66.1438 42.964C66.5486 42.964 66.8779 43.0928 67.1794 43.3728L68.5403 41.9072C67.8711 41.2858 67.0565 40.964 66.1438 40.964V42.964ZM67.2049 43.3957C67.3882 43.5546 67.6193 43.9575 67.5883 44.9488L69.5874 45.0112C69.6257 43.7839 69.3714 42.6268 68.5148 41.8843L67.2049 43.3957ZM67.5878 44.98C67.5878 45.993 67.3435 48.0103 66.8218 51.1058L68.7939 51.4382C69.3122 48.363 69.5878 46.1856 69.5878 44.98H67.5878ZM66.8215 51.1076C66.4917 53.0863 66.2434 54.6499 66.0772 55.7955C65.9162 56.9053 65.8198 57.7012 65.8198 58.084H67.8198C67.8198 57.8775 67.8881 57.2434 68.0565 56.0825C68.2197 54.9574 68.4653 53.4097 68.7942 51.4364L66.8215 51.1076ZM65.8198 58.084C65.8198 58.4343 65.8607 58.8515 66.0531 59.2149C66.1571 59.4114 66.316 59.6115 66.5503 59.759C66.7882 59.9088 67.0462 59.968 67.2878 59.968V57.968C67.3735 57.968 67.495 57.9904 67.6159 58.0665C67.7332 58.1404 67.7946 58.2299 67.8206 58.2791C67.844 58.3233 67.8411 58.3379 67.8339 58.297C67.8271 58.2584 67.8198 58.19 67.8198 58.084H65.8198ZM67.2878 59.968C67.6258 59.968 67.9086 59.8394 68.0986 59.7293C68.3015 59.6118 68.496 59.4579 68.6782 59.2924C69.0434 58.9609 69.4544 58.4956 69.9059 57.9234C70.8136 56.773 71.9752 55.0744 73.3849 52.8467L71.6948 51.7773C70.2965 53.9869 69.1787 55.6163 68.3358 56.6846C67.9119 57.2218 67.5798 57.5884 67.3339 57.8116C67.2107 57.9235 67.1327 57.9775 67.0962 57.9987C67.0468 58.0273 67.1232 57.968 67.2878 57.968V59.968Z" fill="#121212" mask="url(#path-10-outside-1_155_319)"/>
</svg>
